<svg xmlns="http://www.w3.org/2000/svg" viewBox="0 0 322.4 372.12"><defs><style>.cls-1{opacity:0.46;}.cls-2,.cls-3,.cls-4,.cls-5,.cls-6,.cls-7,.cls-8{fill:none;stroke:#87aaaa;stroke-linecap:square;stroke-linejoin:round;stroke-width:3px;}.cls-3{stroke-dasharray:6.15 10.25;}.cls-4{stroke-dasharray:6.27 10.44;}.cls-5{stroke-dasharray:6.27 10.44;}.cls-6{stroke-dasharray:6.27 10.45;}.cls-7{stroke-dasharray:6.27 10.44;}.cls-8{stroke-dasharray:6.27 10.44;}.cls-9{fill:#1d1d1b;}</style></defs><title>logoaseia_1</title><g id="Calque_2" data-name="Calque 2"><g id="Calque_1-2" data-name="Calque 1"><g class="cls-1"><polyline class="cls-2" points="317.39 92.53 319.99 94.03 319.99 97.03"/><line class="cls-3" x1="319.99" y1="107.28" x2="319.99" y2="266.23"/><polyline class="cls-2" points="319.99 271.36 319.99 274.36 318.02 273.21 318.02 275.63 319.99 276.76 319.99 277.6 317.39 279.09"/><line class="cls-4" x1="308.34" y1="284.32" x2="168.14" y2="365.26"/><polyline class="cls-2" points="163.61 367.88 161.02 369.38 158.42 367.88"/><line class="cls-5" x1="149.37" y1="362.65" x2="9.17" y2="281.71"/><polyline class="cls-2" points="4.64 279.1 2.05 277.6 2.05 274.6"/><line class="cls-6" x1="2.05" y1="264.15" x2="2.05" y2="102.25"/><polyline class="cls-2" points="2.05 97.03 2.05 94.03 4.64 92.53"/><line class="cls-5" x1="13.69" y1="87.3" x2="153.9" y2="6.36"/><polyline class="cls-2" points="158.42 3.75 161.02 2.25 163.61 3.75"/><line class="cls-4" x1="172.66" y1="8.97" x2="312.86" y2="89.91"/><line class="cls-2" x1="2.05" y1="277.59" x2="4.65" y2="276.09"/><line class="cls-7" x1="13.69" y1="270.87" x2="153.9" y2="189.92"/><polyline class="cls-2" points="158.42 187.31 161.02 185.81 163.62 187.31"/><line class="cls-7" x1="172.66" y1="192.53" x2="312.87" y2="273.48"/><line class="cls-2" x1="317.39" y1="276.09" x2="319.99" y2="277.59"/><line class="cls-2" x1="161.02" y1="185.81" x2="161.02" y2="182.81"/><line class="cls-8" x1="161.02" y1="172.37" x2="161.02" y2="10.47"/><line class="cls-2" x1="161.02" y1="5.25" x2="161.02" y2="2.25"/></g><polygon class="cls-9" points="161.01 0 0.1 92.9 0.1 95.01 4.24 95.01 161.01 4.5 161.04 4.52 318.04 95.15 318.04 95.34 321.93 95.34 321.93 92.9 161.01 0 161.01 0"/><polygon class="cls-9" points="161.37 45.95 161.17 46.3 160.97 45.95 2 137.73 3.95 141.1 161.17 50.33 216.84 82.47 218.79 79.1 161.37 45.95 161.37 45.95"/><polygon class="cls-9" points="160.94 90.84 160.74 91.19 160.54 90.84 3.89 181.28 1.57 182.62 1.95 183.28 0.57 183.28 0.57 279.21 161.48 372.12 320.04 280.57 322.4 279.21 322.4 276.82 320.48 275.71 318.51 274.58 261.22 241.57 261.13 241.73 260.85 241.57 161.64 298.85 106.17 266.83 104.22 270.2 161.64 303.35 162.02 302.7 162.21 303.02 260.5 246.27 316.14 278.33 161.48 367.62 4.47 276.96 4.47 185.44 160.74 95.22 216.41 127.36 218.36 123.99 160.94 90.84 160.94 90.84"/><path class="cls-9" d="M146,164.38A14.85,14.85,0,0,0,133.19,158a15.83,15.83,0,0,0-4.64.72,13,13,0,0,0-4.29,2.19,10.83,10.83,0,0,0-4.29,9,10,10,0,0,0,1.13,5,10.93,10.93,0,0,0,3,3.35,17.12,17.12,0,0,0,4.28,2.28c1.6.6,3.28,1.2,5,1.79,2.15.72,4.32,1.49,6.5,2.33a23.09,23.09,0,0,1,5.9,3.26,15.8,15.8,0,0,1,4.28,5.1,16.52,16.52,0,0,1,1.65,7.83,17.66,17.66,0,0,1-1.77,8.18,17.06,17.06,0,0,1-4.59,5.68,18.76,18.76,0,0,1-6.46,3.31,25.53,25.53,0,0,1-7.31,1.08,28,28,0,0,1-5.6-.58,25.31,25.31,0,0,1-5.34-1.75,21.52,21.52,0,0,1-4.73-3,20.94,20.94,0,0,1-3.85-4.12l5.43-4.11a16.73,16.73,0,0,0,5.64,5.68,15.73,15.73,0,0,0,8.54,2.28,16.07,16.07,0,0,0,4.81-.76,13.29,13.29,0,0,0,4.42-2.33,12.57,12.57,0,0,0,3.24-3.84,10.74,10.74,0,0,0,1.27-5.32,10.85,10.85,0,0,0-1.27-5.51,11.33,11.33,0,0,0-3.37-3.66A20,20,0,0,0,136,189.7c-1.81-.66-3.71-1.31-5.69-2s-4.06-1.4-6-2.24a20.07,20.07,0,0,1-5.34-3.26,15.09,15.09,0,0,1-3.81-5,16.71,16.71,0,0,1,5-20.57,19.42,19.42,0,0,1,6.39-3.13,25.37,25.37,0,0,1,6.92-1,23.34,23.34,0,0,1,10.77,2.29,18.59,18.59,0,0,1,6.74,5.41Z" transform="translate(0.1)"/><polygon class="cls-9" points="201.3 213.16 201.3 219.13 158.9 219.13 158.9 153.1 200.17 153.1 200.17 159.07 165.67 159.07 165.67 181.73 185.99 181.73 185.99 187.7 165.67 187.7 165.67 213.16 201.3 213.16"/><path class="cls-9" d="M209.13,152.49v11.19h6V152.49Zm0,18.65v48h6v-48Z" transform="translate(0.1)"/><polygon class="cls-9" points="151.84 203.01 151.44 203.01 151.44 202.32 151.84 203.01"/><path class="cls-9" d="M80.16,153.1H74.24l-25.87,66h6.68l5.35-14.28,4.49-12L77,160.57l13.19,35.06H70l-2.3,6.15H92.5l6.6,17.35h6.76Z" transform="translate(0.1)"/><path class="cls-9" d="M255.11,152.82h-5.74l-25,66.31H231l6.41-17.42h24.1l-2.23-6.18H239.6l12.8-35.22,11.78,32.42,4.36,12.06,5.19,14.34h6.49Z" transform="translate(0.1)"/></g></g></svg>