<svg xmlns="http://www.w3.org/2000/svg" viewBox="0 0 323.4 372.12"><defs><style>.cls-1{fill:#f8fafa;}.cls-2{opacity:0.46;}.cls-3,.cls-4,.cls-5,.cls-6,.cls-7,.cls-8,.cls-9{fill:none;stroke:#87aaaa;stroke-linecap:square;stroke-linejoin:round;stroke-width:4px;}.cls-4{stroke-dasharray:6.15 10.25;}.cls-5{stroke-dasharray:6.27 10.44;}.cls-6{stroke-dasharray:6.27 10.44;}.cls-7{stroke-dasharray:6.27 10.45;}.cls-8{stroke-dasharray:6.27 10.44;}.cls-9{stroke-dasharray:6.27 10.44;}.cls-10{fill:#1d1d1b;}</style></defs><title>logoaseiapetitforatfondblanc</title><g id="Calque_2" data-name="Calque 2"><g id="Calque_1-2" data-name="Calque 1"><polygon class="cls-1" points="320.67 94.03 320.67 274.36 318.7 273.21 318.7 275.63 320.67 276.76 320.67 277.6 316.96 279.74 161.7 369.38 2.73 277.6 2.73 94.03 161.7 2.25 320.67 94.03"/><g class="cls-2"><polyline class="cls-3" points="318.07 92.53 320.67 94.02 320.67 97.02"/><line class="cls-4" x1="320.67" y1="107.28" x2="320.67" y2="266.23"/><polyline class="cls-3" points="320.67 271.36 320.67 274.36 318.7 273.21 318.7 275.63 320.67 276.76 320.67 277.6 318.07 279.09"/><line class="cls-5" x1="309.02" y1="284.32" x2="168.82" y2="365.26"/><polyline class="cls-3" points="164.3 367.88 161.7 369.38 159.1 367.88"/><line class="cls-6" x1="150.06" y1="362.65" x2="9.85" y2="281.71"/><polyline class="cls-3" points="5.33 279.1 2.73 277.6 2.73 274.6"/><line class="cls-7" x1="2.73" y1="264.15" x2="2.73" y2="102.25"/><polyline class="cls-3" points="2.73 97.02 2.73 94.02 5.33 92.53"/><line class="cls-6" x1="14.37" y1="87.3" x2="154.58" y2="6.36"/><polyline class="cls-3" points="159.1 3.74 161.7 2.24 164.3 3.74"/><line class="cls-5" x1="173.34" y1="8.97" x2="313.55" y2="89.91"/><line class="cls-3" x1="2.73" y1="277.59" x2="5.33" y2="276.09"/><line class="cls-8" x1="14.38" y1="270.87" x2="154.58" y2="189.92"/><polyline class="cls-3" points="159.1 187.31 161.7 185.81 164.3 187.31"/><line class="cls-8" x1="173.34" y1="192.53" x2="313.55" y2="273.48"/><line class="cls-3" x1="318.07" y1="276.09" x2="320.67" y2="277.59"/><line class="cls-3" x1="161.7" y1="185.81" x2="161.7" y2="182.81"/><line class="cls-9" x1="161.7" y1="172.37" x2="161.7" y2="10.47"/><line class="cls-3" x1="161.7" y1="5.25" x2="161.7" y2="2.25"/></g><polygon class="cls-10" points="161.69 0 0.78 92.9 0.78 95.01 4.92 95.01 161.69 4.5 161.72 4.52 318.72 95.15 318.72 95.34 322.61 95.34 322.61 92.9 161.69 0 161.69 0"/><polygon class="cls-10" points="162.05 45.95 161.85 46.3 161.65 45.95 2.68 137.73 4.63 141.1 161.85 50.33 217.52 82.47 219.47 79.1 162.05 45.95 162.05 45.95"/><polygon class="cls-10" points="161.62 90.84 161.42 91.19 161.22 90.84 4.57 181.28 2.25 182.62 2.63 183.28 1.25 183.28 1.25 279.21 162.16 372.12 320.72 280.57 323.08 279.21 323.08 276.82 321.16 275.71 319.19 274.58 261.9 241.57 261.81 241.73 261.53 241.57 162.32 298.85 106.85 266.83 104.9 270.2 162.32 303.35 162.7 302.7 162.89 303.02 261.18 246.27 316.82 278.33 162.16 367.62 5.15 276.96 5.15 185.44 161.42 95.22 217.09 127.36 219.04 123.99 161.62 90.84 161.62 90.84"/><path class="cls-10" d="M128.56,220l-10.77,26H104.35l52-120.38h11.91L220,246H206.38l-13.27-31.62h-50l4.62-11.22h40.75L162,139.22l-24.42,58.86Z"/></g></g></svg>