<svg xmlns="http://www.w3.org/2000/svg" viewBox="0 0 72.27 97.92"><defs><style>.cls-1{fill:#87aaaa;}</style></defs><title>Romuald CROCHAT couleur ASEIA</title><g id="Calque_2" data-name="Calque 2"><g id="Calque_1-2" data-name="Calque 1"><path class="cls-1" d="M72.27,65.28A32.81,32.81,0,0,1,44.55,97.7l-.57.09-.4.06-.62.07h-27l2.3-4H41.49l.25,0a28.73,28.73,0,0,0,8.41-55.29l.21-.38L52.22,35A32.82,32.82,0,0,1,72.27,65.28Z"/><path class="cls-1" d="M31.69,4v0a28.72,28.72,0,0,0-1.16,57.33c.13,0,.27,0,.41,0,.41,0,.81.05,1.23.06L29.9,65.28h-.06L11,97.92H6.27L25.48,64.64c-.63-.15-1.25-.31-1.87-.49A32.83,32.83,0,0,1,29.31,0H67.59l-2.3,4Z"/></g></g></svg>