<svg xmlns="http://www.w3.org/2000/svg" viewBox="0 0 1786.01 5274.08"><defs><style>.cls-1{fill:#fff;}.cls-2{fill:none;}.cls-3{fill:#d9d9d9;}.cls-4{fill:#f0f0f0;}</style></defs><title>backgroundaseia_4</title><g id="Calque_2" data-name="Calque 2"><g id="Calque_1-2" data-name="Calque 1"><polygon class="cls-1" points="852 4576.04 1421.53 4576.06 1421.52 4790.55 852 4576.04"/><polygon class="cls-2" points="1785.02 4234.23 1464.03 4066.06 1785.03 3902.08 1785.98 5274.08 1785.49 4876.1 1396.48 5134.03 1396.47 5134.03 1396.19 5133.92 1784.99 4876.08 1396 4576.06 852 4576.04 1785.02 4234.23"/><polygon class="cls-2" points="1395.98 5133.85 1395.99 4780.44 1396.48 4780.2 1395.98 5133.85"/><polygon class="cls-3" points="328.55 4416.71 852 4576.04 409.98 4649.4 328.55 4416.71"/><polygon class="cls-2" points="849.02 4078.49 849.02 4078.09 852.02 4078.04 1122.94 3719.5 1134.04 3718.05 1114.01 4265.05 849.02 4078.49"/><polygon class="cls-2" points="1122.29 3715.99 1134.04 3718.05 1122.94 3719.5 1124.04 3718.05 1122.29 3715.99"/><polygon class="cls-2" points="848.49 4078.1 848.96 4078.09 849.03 4078.04 849.03 4078.49 848.72 4078.27 848.49 4078.1"/><polygon class="cls-2" points="173.11 3972.53 302.37 4087.44 426.15 4197.47 429.74 4200.66 544.86 4303.09 328.55 4416.71 173.11 3972.53"/><polygon class="cls-2" points="429.74 4200.66 544.85 4302.99 544.92 4303.05 544.92 4303.06 544.87 4303.09 544.86 4303.09 429.74 4200.66"/><polygon class="cls-2" points="168.03 3958.01 348.05 3580.02 462.04 3806.02 170.96 3966.39 168.03 3958.01"/><polygon class="cls-3" points="462.06 3332.48 618.24 2993.37 1247.24 3359.09 893.05 3446.11 619.07 2997.03 654.56 3504.71 462.06 3332.48"/><polygon class="cls-3" points="168.07 3082.01 168.07 3082.39 168.43 3082.32 361.39 3246.72 359.99 3554.09 359.99 3554.1 348.05 3580.02 0.08 2662 168.08 2751.61 168.07 3082.01"/><polygon class="cls-2" points="354.31 2759.46 355.17 2571.67 610.85 2708.05 354.31 2759.46"/><polygon class="cls-2" points="168.43 3082.32 362.31 3043.46 618.85 2992.05 462.06 3332.48 361.39 3246.72 168.43 3082.32"/><polygon class="cls-2" points="160.06 2798.39 160.06 2798.01 160.42 2798.32 160.06 2798.39"/><polygon class="cls-2" points="160.07 2798.01 160.08 2467.61 355.17 2571.67 160.07 2798.01"/><polygon class="cls-2" points="979.34 4984.04 979.98 4984.04 980.04 4984.01 980.06 4984.07 980.14 4984.33 979.34 4984.04"/><polygon class="cls-4" points="1396.48 5134.03 1785.49 4876.1 1785.97 5274.08 1396.48 5134.03"/><polygon class="cls-3" points="1401.01 4780.2 1400.53 4780.44 1400.54 4576.06 1784.99 4876.08 1400.72 5133.92 1400.51 5133.85 1401.01 4780.2"/><polygon class="cls-2" points="1395.98 5134.06 1395.98 5133.85 1396.19 5133.92 1395.98 5134.06"/><polygon class="cls-2" points="1395.98 5133.85 1395.99 4780.44 1396.48 4780.2 1395.98 5133.85"/><polygon class="cls-4" points="740.51 4898.09 1400.53 4575.06 1400.51 5135.85 1084.03 5022.05 740.54 4898.19 740.51 4898.09"/><polygon class="cls-2" points="1396.48 4780.2 1395.98 5133.85 1395.99 4780.44 1396.48 4780.2"/><polygon class="cls-2" points="979.98 4984.04 980.04 4984.01 980.06 4984.07 979.98 4984.04"/><polygon class="cls-4" points="849.03 4078.49 1114.02 4265.05 852 4576.04 849.03 4078.49"/><polygon class="cls-4" points="1114.01 4265.05 1134.04 3718.05 1464.02 4066.06 1114.01 4265.05"/><polygon class="cls-3" points="1134.04 3718.05 1464.04 3811.33 1785.03 3902.08 1464.03 4066.06 1134.04 3718.05"/><line class="cls-2" x1="848.71" y1="4078.27" x2="848.95" y2="4078.09"/><line class="cls-2" x1="1785.03" y1="3902.08" x2="1786.01" y2="4318.21"/><polygon class="cls-2" points="1134.04 3718.05 1252.24 3357.86 1356.02 3580.06 1464.03 3811.33 1134.04 3718.05"/><polygon class="cls-4" points="893.05 3445.88 1247.53 3357.55 1130.87 3718.05 1119.28 3715.99 893.05 3445.88"/><polygon class="cls-3" points="348.05 3580.02 654.56 3504.71 893.05 3446.11 1122.29 3715.99 348.05 3580.02"/><polygon class="cls-2" points="348.05 3580.02 359.99 3554.1 359.99 3554.09 462.06 3332.48 654.56 3504.71 348.05 3580.02"/><polyline class="cls-4" points="1396 4576.06 1395.53 4576.54 1784.53 4876.54 1784.53 4439.55 1395.53 4576.54"/><polygon class="cls-4" points="348.05 3580.02 1122.29 3715.99 1124.04 3718.05 1122.94 3719.5 462.04 3806.02 348.05 3580.02"/><polygon class="cls-2" points="302.49 4087.44 424.04 4085.36 429.18 4085.27 508.02 4083.96 523.72 4177.19 523.83 4177.82 544.85 4302.99 429.74 4200.66 426.15 4197.47 302.49 4087.44"/><polygon class="cls-2" points="429.74 4200.66 544.85 4302.99 544.87 4303.09 544.86 4303.09 429.74 4200.66"/><polygon class="cls-2" points="523.72 4177.19 508.02 4083.96 508.06 4083.96 523.72 4177.19"/><polygon class="cls-2" points="302.42 4087.38 424.04 4085.36 302.49 4087.44 302.42 4087.38"/><polygon class="cls-2" points="170.96 3966.39 462.04 3806.02 848.49 4078.1 508.01 4083.92 462.04 3811.02 302.37 4087.44 173.11 3972.53 173.11 3972.52 170.96 3966.39"/><polyline class="cls-2" points="173.1 3972.52 168.03 3968.01 170.96 3966.39"/><polygon class="cls-3" points="1246.79 3359.69 1542.07 3059.07 1307.03 3642.06 1306.47 3640.85 1246.79 3359.69"/><polygon class="cls-3" points="852 4576.04 1400.53 4780.06 1400.53 4780.44 981.11 4984.01 852 4576.04"/><polygon class="cls-2" points="461.99 4798.02 852 4576.04 980.04 4984.01 979.98 4984.04 979.33 4984.04 461.99 4798.02"/><polygon class="cls-3" points="167.98 4984.01 461.99 4798.02 979.33 4984.04 167.98 4984.01"/><polygon class="cls-4" points="409.98 4649.4 852 4576.04 461.99 4798.02 409.98 4649.4"/><polygon class="cls-3" points="0 4576 409.98 4649.4 461.99 4798.02 0 4576"/><polygon class="cls-4" points="328.55 4416.71 544.91 4303.06 852 4576.04 328.55 4416.71"/><polygon class="cls-3" points="462.04 3806.02 1122.94 3719.5 852.03 4078.04 849.03 4078.09 849.03 4078.04 848.96 4078.09 848.49 4078.1 462.04 3806.02"/><polygon class="cls-2" points="544.92 4303.06 848.72 4078.27 849.03 4078.49 852 4576.04 544.92 4303.06"/><polygon class="cls-3" points="508.01 4083.92 848.49 4078.1 848.72 4078.27 544.92 4303.06 544.92 4303.05 523.83 4177.82 523.72 4177.19 508.02 4083.96 508.01 4083.92"/><polygon class="cls-4" points="302.37 4087.44 462.04 3811.02 508.01 4083.92 429.18 4085.27 424.04 4085.36 302.49 4087.44 302.37 4087.44"/><line class="cls-2" x1="848.95" y1="4078.09" x2="849.02" y2="4078.09"/><polygon class="cls-4" points="619.07 2997.03 893.05 3446.11 654.55 3504.71 619.07 2997.03"/><polygon class="cls-4" points="359.99 3554.09 361.39 3246.72 462.06 3332.48 359.99 3554.09"/><polygon class="cls-3" points="385.38 2662.01 580.49 2435.67 579.63 2623.46 385.75 2662.32 385.38 2662.01"/><polygon class="cls-4" points="1395.53 4576.54 1318.99 4404.96 851.53 4576.54 1395.53 4576.54"/><polygon class="cls-4" points="1784.53 4439.54 1318.53 4404.54 1785.02 4234.23 1784.53 4439.54"/><polygon class="cls-3" points="1784.53 4439.54 1395.53 4576.54 1318.53 4404.54 1784.53 4439.54"/><polygon class="cls-3" points="1318.53 4404.54 1113.53 4265.54 851.53 4576.54 1318.53 4404.54"/><polygon class="cls-3" points="1463.53 4066.54 1318.53 4404.54 1784.53 4234.54 1463.53 4066.54"/><line class="cls-2" x1="1388.53" y1="3648.54" x2="1388.53" y2="3622.54"/><line class="cls-2" x1="1259.79" y1="3332.69" x2="1319.47" y2="3613.85"/><line class="cls-2" x1="618.24" y1="2993.37" x2="1247.24" y2="3359.09"/><polygon class="cls-1" points="852.03 698.04 1421.57 698.02 1421.56 483.53 852.03 698.04"/><polygon class="cls-2" points="1785.05 1039.85 1464.06 1208.02 1785.06 1372 1786.01 0 1785.52 397.98 1396.51 140.05 1396.5 140.05 1396.22 140.16 1785.02 398 1396.03 698.02 852.03 698.04 1785.05 1039.85"/><polygon class="cls-2" points="1396.01 140.23 1396.03 493.64 1396.52 493.88 1396.01 140.23"/><polygon class="cls-3" points="328.58 857.37 852.03 698.04 410.01 624.68 328.58 857.37"/><polygon class="cls-2" points="849.06 1195.59 849.06 1195.99 852.06 1196.04 1122.97 1554.58 1134.07 1556.03 1114.05 1009.03 849.06 1195.59"/><polygon class="cls-2" points="1122.32 1558.09 1134.07 1556.03 1122.97 1554.58 1124.07 1556.03 1122.32 1558.09"/><polygon class="cls-2" points="848.52 1195.98 848.99 1195.99 849.06 1196.04 849.06 1195.59 848.75 1195.81 848.52 1195.98"/><polygon class="cls-2" points="173.14 1301.55 302.4 1186.64 426.18 1076.61 429.77 1073.42 544.89 970.99 328.58 857.37 173.14 1301.55"/><polygon class="cls-2" points="429.77 1073.42 544.88 971.09 544.95 971.03 544.95 971.02 544.9 970.99 544.89 970.99 429.77 1073.42"/><polygon class="cls-2" points="168.06 1316.07 348.08 1694.06 462.07 1468.06 170.99 1307.69 168.06 1316.07"/><polygon class="cls-3" points="462.09 1941.6 618.27 2280.71 1247.27 1914.99 893.08 1827.97 619.1 2277.05 654.59 1769.37 462.09 1941.6"/><polygon class="cls-3" points="168.1 2192.07 168.1 2191.69 168.46 2191.76 361.42 2027.36 360.02 1719.99 360.02 1719.98 348.08 1694.06 0.11 2612.08 168.11 2522.47 168.1 2192.07"/><polygon class="cls-2" points="362.34 2230.62 363.2 2418.41 618.88 2282.03 362.34 2230.62"/><polygon class="cls-2" points="168.46 2191.76 362.34 2230.62 618.88 2282.03 462.09 1941.6 361.42 2027.36 168.46 2191.76"/><polygon class="cls-2" points="168.1 2191.69 168.1 2192.07 168.46 2191.76 168.1 2191.69"/><polygon class="cls-2" points="168.1 2192.07 168.11 2522.47 363.2 2418.41 168.1 2192.07"/><polygon class="cls-2" points="979.38 290.04 980.02 290.04 980.08 290.07 980.1 290.01 980.18 289.75 979.38 290.04"/><polygon class="cls-4" points="1396.51 140.05 1785.52 397.98 1786.01 0 1396.51 140.05"/><polygon class="cls-3" points="1401.05 493.88 1400.56 493.64 1400.57 698.02 1785.02 398 1400.76 140.16 1400.55 140.23 1401.05 493.88"/><polygon class="cls-2" points="1396.01 140.23 1396.03 493.64 1396.52 493.88 1396.01 140.23"/><polygon class="cls-4" points="740.55 375.99 1400.57 699.02 1400.55 138.23 1084.07 252.03 740.58 375.89 740.55 375.99"/><polygon class="cls-2" points="1396.52 493.88 1396.01 140.23 1396.03 493.64 1396.52 493.88"/><polygon class="cls-2" points="980.02 290.04 980.08 290.07 980.1 290.01 980.02 290.04"/><polygon class="cls-4" points="849.06 1195.59 1114.05 1009.03 852.03 698.04 849.06 1195.59"/><polygon class="cls-4" points="1114.05 1009.03 1134.07 1556.03 1464.06 1208.02 1114.05 1009.03"/><polygon class="cls-3" points="1134.07 1556.03 1464.07 1462.75 1785.06 1372 1464.06 1208.02 1134.07 1556.03"/><line class="cls-2" x1="848.75" y1="1195.81" x2="848.99" y2="1195.99"/><polygon class="cls-2" points="1134.07 1556.03 1252.28 1916.22 1356.06 1694.02 1464.07 1462.75 1134.07 1556.03"/><polygon class="cls-4" points="893.08 1828.2 1247.56 1916.53 1130.91 1556.03 1119.31 1558.09 893.08 1828.2"/><polygon class="cls-3" points="348.08 1694.06 654.59 1769.37 893.08 1827.97 1122.32 1558.09 348.08 1694.06"/><polygon class="cls-2" points="348.08 1694.06 360.02 1719.98 360.02 1719.99 462.09 1941.6 654.59 1769.37 348.08 1694.06"/><polyline class="cls-4" points="1396.04 698.02 1395.56 697.54 1784.56 397.54 1784.56 834.53 1395.56 697.54"/><polygon class="cls-4" points="348.08 1694.06 1122.32 1558.09 1124.07 1556.03 1122.97 1554.58 462.07 1468.06 348.08 1694.06"/><polygon class="cls-2" points="302.52 1186.64 424.07 1188.72 429.21 1188.81 508.05 1190.12 523.75 1096.89 523.86 1096.26 544.88 971.09 429.77 1073.42 426.18 1076.61 302.52 1186.64"/><polygon class="cls-2" points="429.77 1073.42 544.88 971.09 544.9 970.99 544.89 970.99 429.77 1073.42"/><polygon class="cls-2" points="523.75 1096.89 508.05 1190.12 508.09 1190.12 523.75 1096.89"/><polygon class="cls-2" points="302.45 1186.7 424.07 1188.72 302.52 1186.64 302.45 1186.7"/><polygon class="cls-2" points="170.99 1307.69 462.07 1468.06 848.52 1195.98 508.04 1190.16 462.07 1463.06 302.4 1186.64 173.14 1301.55 173.14 1301.56 170.99 1307.69"/><polyline class="cls-2" points="173.14 1301.56 168.06 1306.07 170.99 1307.69"/><polygon class="cls-3" points="1246.82 1914.39 1542.1 2215.01 1307.06 1632.02 1306.5 1633.23 1246.82 1914.39"/><polygon class="cls-3" points="852.03 698.04 1400.56 494.02 1400.56 493.64 981.15 290.07 852.03 698.04"/><polygon class="cls-2" points="462.03 476.06 852.03 698.04 980.08 290.07 980.02 290.04 979.37 290.04 462.03 476.06"/><polygon class="cls-3" points="168.02 290.07 462.03 476.06 979.37 290.04 168.02 290.07"/><polygon class="cls-4" points="410.01 624.68 852.03 698.04 462.03 476.06 410.01 624.68"/><polygon class="cls-3" points="0.04 698.08 410.01 624.68 462.03 476.06 0.04 698.08"/><polygon class="cls-4" points="328.58 857.37 544.95 971.02 852.03 698.04 328.58 857.37"/><polygon class="cls-3" points="462.07 1468.06 1122.97 1554.58 852.06 1196.04 849.06 1195.99 849.06 1196.04 848.99 1195.99 848.52 1195.98 462.07 1468.06"/><polygon class="cls-2" points="544.95 971.02 848.75 1195.81 849.06 1195.59 852.03 698.04 544.95 971.02"/><polygon class="cls-3" points="510.04 1191.16 850.52 1196.98 850.75 1196.81 546.95 972.02 546.95 972.03 525.86 1097.26 525.75 1097.89 510.05 1191.12 510.04 1191.16"/><polygon class="cls-4" points="302.4 1186.64 462.07 1463.06 508.04 1190.16 429.21 1188.81 424.07 1188.72 302.52 1186.64 302.4 1186.64"/><line class="cls-2" x1="848.99" y1="1195.99" x2="849.06" y2="1195.99"/><polygon class="cls-4" points="619.1 2277.05 893.08 1827.97 654.59 1769.37 619.1 2277.05"/><polygon class="cls-4" points="360.02 1719.99 361.42 2027.36 462.09 1941.6 360.02 1719.99"/><polygon class="cls-3" points="168.1 2192.07 363.2 2418.41 362.34 2230.62 168.46 2191.76 168.1 2192.07"/><polygon class="cls-4" points="1395.56 697.54 1319.02 869.12 851.56 697.54 1395.56 697.54"/><polygon class="cls-4" points="1784.56 834.54 1318.56 869.54 1785.05 1039.85 1784.56 834.54"/><polygon class="cls-3" points="1784.56 834.54 1395.56 697.54 1318.56 869.54 1784.56 834.54"/><polygon class="cls-3" points="1318.56 869.54 1113.56 1008.54 851.56 697.54 1318.56 869.54"/><polygon class="cls-3" points="1463.56 1207.54 1318.56 869.54 1784.56 1039.54 1463.56 1207.54"/><line class="cls-2" x1="1388.56" y1="1625.54" x2="1388.56" y2="1651.54"/><line class="cls-2" x1="1319.5" y1="1660.23" x2="1259.82" y2="1941.39"/><line class="cls-2" x1="1247.27" y1="1914.99" x2="618.27" y2="2280.71"/><polygon class="cls-4" points="1394.96 3131.06 620.73 2995.09 618.98 2993.03 620.08 2991.58 1280.97 2905.06 1394.96 3131.06"/><polygon class="cls-3" points="1168.72 2398.7 1105.46 2740.8 617.5 2994.05 1168.72 2398.7"/><polygon class="cls-4" points="998.49 2213.54 1075.03 2385.12 1542.48 2213.54 998.49 2213.54"/></g></g></svg>